<?xml version="1.0" encoding="UTF-8" standalone="no"?>
<svg
   height="800"
   viewBox="0 0 800 800"
   width="800"
   version="1.1"
   id="svg14"
   sodipodi:docname="apps-asetek.svg"
   xml:space="preserve"
   inkscape:export-filename="apps-asetek.png"
   inkscape:export-xdpi="9.6000004"
   inkscape:export-ydpi="9.6000004"
   inkscape:version="1.2.2 (b0a8486541, 2022-12-01)"
   xmlns:inkscape="http://www.inkscape.org/namespaces/inkscape"
   xmlns:sodipodi="http://sodipodi.sourceforge.net/DTD/sodipodi-0.dtd"
   xmlns="http://www.w3.org/2000/svg"
   xmlns:svg="http://www.w3.org/2000/svg"><defs
     id="defs18"><clipPath
       id="clip0_156_2736"><rect
         width="691.65198"
         height="194"
         fill="#ffffff"
         id="rect435"
         x="0"
         y="0" /></clipPath></defs><sodipodi:namedview
     id="namedview16"
     pagecolor="#ffffff"
     bordercolor="#000000"
     borderopacity="0.25"
     inkscape:showpageshadow="2"
     inkscape:pageopacity="0.0"
     inkscape:pagecheckerboard="0"
     inkscape:deskcolor="#d1d1d1"
     showgrid="false"
     inkscape:zoom="0.9775"
     inkscape:cx="400.51151"
     inkscape:cy="400"
     inkscape:window-width="1920"
     inkscape:window-height="1011"
     inkscape:window-x="0"
     inkscape:window-y="0"
     inkscape:window-maximized="1"
     inkscape:current-layer="svg14" /><g
     fill="none"
     fill-rule="evenodd"
     id="g12"><rect
       fill="#ffffff"
       height="780"
       rx="150"
       stroke="#ffffff"
       stroke-width="20"
       width="780"
       x="10"
       y="10"
       id="rect2" /></g><style
     type="text/css"
     id="style639">
	.st0{fill:#E52421;}
	.st1{fill:#FFFFFF;}
	.st2{fill:#E42320;}
</style><g
     id="g649"
     transform="matrix(4.7776186,0,0,4.7776186,-61.040195,7.7575202)">
	<circle
   class="st0"
   cx="96.5"
   cy="82.099998"
   r="69.699997"
   id="circle641" />
	<g
   id="g647">
		<path
   class="st1"
   d="m 96.5,35.4 c -25.9,0 -47,21.2 -46.8,47.2 0.2,25.7 21.6,46.3 47.4,46.3 h 1.7 V 118.3 H 96.5 C 76,118.3 59.4,101.1 60.4,80.4 61.3,61.9 76.3,46.9 94.8,46 c 20.7,-1 37.9,15.6 37.9,36.1 h 10.6 c 0,-25.7 -21,-46.7 -46.8,-46.7 z"
   id="path643" />
		<path
   class="st1"
   d="m 97,58.8 c -13.4,-0.4 -24.4,10.6 -24,24 0.4,12.7 11,22.7 23.8,22.7 h 2.1 V 94.9 H 96.7 C 90,94.9 84.1,89.8 83.7,83 83.2,75.2 89.6,68.8 97.3,69.4 c 6.7,0.5 11.9,6.3 11.9,13 v 23.1 h 10.6 v -23 C 119.7,69.8 109.7,59.1 97,58.8 Z"
   id="path645" />
	</g>
</g></svg>
