<?xml version="1.0" encoding="UTF-8" standalone="no"?>
<svg
   height="800"
   viewBox="0 0 800 800"
   width="800"
   version="1.1"
   id="svg14"
   sodipodi:docname="apps-asetek.svg"
   xml:space="preserve"
   inkscape:export-filename="apps-lmu.svg"
   inkscape:export-xdpi="96"
   inkscape:export-ydpi="96"
   xmlns:inkscape="http://www.inkscape.org/namespaces/inkscape"
   xmlns:sodipodi="http://sodipodi.sourceforge.net/DTD/sodipodi-0.dtd"
   xmlns="http://www.w3.org/2000/svg"
   xmlns:svg="http://www.w3.org/2000/svg"><defs
     id="defs18"><clipPath
       id="clip0_156_2736"><rect
         width="691.65198"
         height="194"
         fill="#ffffff"
         id="rect435"
         x="0"
         y="0" /></clipPath></defs><sodipodi:namedview
     id="namedview16"
     pagecolor="#ffffff"
     bordercolor="#000000"
     borderopacity="0.25"
     inkscape:showpageshadow="2"
     inkscape:pageopacity="0.0"
     inkscape:pagecheckerboard="0"
     inkscape:deskcolor="#d1d1d1"
     showgrid="false" /><g
     fill="none"
     fill-rule="evenodd"
     id="g12"><rect
       fill="#ffffff"
       height="780"
       rx="150"
       stroke="#ffffff"
       stroke-width="20"
       width="780"
       x="10"
       y="10"
       id="rect2" /></g><g
     style="fill:none"
     id="g513"
     transform="matrix(1.0061228,0,0,1.0061228,-66.529926,378.32619)"><g
       clip-path="url(#clip0_156_2736)"
       id="g433"
       transform="matrix(2.1478773,0,0,2.1478773,107.6727,-143.34204)"><path
         d="M 153.125,153.532 H 31.8614 c -13.2744,0 -22.93735,-12.57 -19.5026,-25.374 L 42.7342,14.9415 C 45.0973,6.12817 53.0972,0 62.2346,0 H 96.4865 L 68.8457,103.034 c -0.6865,2.561 1.2461,5.074 3.9014,5.074 h 65.0939 l -0.004,0.021 h -0.039 l 0.025,0.049 15.302,45.352 z"
         fill="#ff1d43"
         id="path429" /><path
         d="M 319.149,25.3746 288.776,138.591 c -2.366,8.813 -10.363,14.941 -19.503,14.941 H 238.975 L 269.291,40.5219 264.2,29.9034 231.031,153.532 H 187.416 L 217.705,40.626 212.623,29.9011 179.456,153.532 h -18.322 l -15.325,-45.401 h -0.016 L 145.8,108.111 163.934,40.5106 141.287,0 h 158.359 c 13.275,0 22.935,12.5708 19.503,25.3746 z"
         fill="#ff1d43"
         id="path431" /></g></g></svg>
