<?xml version="1.0" encoding="UTF-8" standalone="no"?>
<svg
   height="800"
   viewBox="0 0 800 800"
   width="800"
   version="1.1"
   id="svg321"
   sodipodi:docname="vehicle-seat-horizon-up.svg"
   inkscape:version="1.2.2 (b0a8486541, 2022-12-01)"
   xmlns:inkscape="http://www.inkscape.org/namespaces/inkscape"
   xmlns:sodipodi="http://sodipodi.sourceforge.net/DTD/sodipodi-0.dtd"
   xmlns="http://www.w3.org/2000/svg"
   xmlns:svg="http://www.w3.org/2000/svg">
  <defs
     id="defs325" />
  <sodipodi:namedview
     id="namedview323"
     pagecolor="#ffffff"
     bordercolor="#000000"
     borderopacity="0.25"
     inkscape:showpageshadow="2"
     inkscape:pageopacity="0.0"
     inkscape:pagecheckerboard="0"
     inkscape:deskcolor="#d1d1d1"
     showgrid="false"
     inkscape:zoom="0.9775"
     inkscape:cx="401.53453"
     inkscape:cy="400"
     inkscape:window-width="1920"
     inkscape:window-height="1011"
     inkscape:window-x="0"
     inkscape:window-y="0"
     inkscape:window-maximized="1"
     inkscape:current-layer="g319" />
  <g
     fill="none"
     fill-rule="evenodd"
     id="g319">
    <rect
       fill="#2b0000"
       height="780"
       rx="150"
       stroke="#d70000"
       stroke-width="20"
       width="780"
       x="10"
       y="10"
       id="rect311" />
    <g
       fill="#fff"
       fill-rule="nonzero"
       id="g317">
      <path
         d="m614.53125 233.091741v-60.435591c0-12.499619-10.15782-22.65615-22.67247-22.65615h-24.547621c-12.499611 0-22.656136 10.156531-22.656136 22.65615v60.439888c0 12.516377 10.156525 22.65615 22.656136 22.65615h12.28133v31.906039c-17.546721.046999-37.547388 11.968954-46.298835 39.390342-18.531995 58.265668-79.406262 201.171243-79.406262 201.171243s-73.889073 9.515437-134.999239-2.640217c-48.32696-9.562273-70.142198 41.014992-37.032193 90.045379 17.266565 25.54623 31.734575 34.375026 63.516416 34.375026h124.390253c37.062271 0 64.328525-23.594158 71.452745-50.294959 22.906214-85.98483 45.048444-170.01458 68.797276-272.658406 2.390137-10.250203.812367-18.641146-3.046399-25.140175l.003357-52.048085c4.609259-4.155898 7.561642-10.109265 7.561642-16.766419z"
         id="path315" />
      <path
         d="m 357.30004,324.38445 c 10.0474,-0.0125 18.17839,-8.1685 18.1661,-18.21565 l -0.1331,-94.11052 c 0.002,-2.45933 -0.50415,-4.86917 -1.45023,-7.09176 -0.91135,-2.14094 -2.22702,-4.09146 -3.90716,-5.76402 -3.41294,-3.4013 -8.05011,-5.3133 -12.87416,-5.30356 l -94.11701,0.18066 c -10.05139,0.022 -18.17464,8.17733 -18.15935,18.23149 0.0153,10.03552 8.17734,18.17463 18.22084,18.15319 l 47.75528,-0.092 c -50.81864,45.78978 -77.50043,98.54541 -78.71194,100.98853 -4.46016,8.99967 -0.81238,19.88743 8.1737,24.37675 8.99014,4.48022 19.90595,0.81986 24.39516,-8.15548 0.27409,-0.55772 26.29422,-51.81568 74.34704,-93.63286 l 0.0754,52.28997 c 3.8e-4,10.00047 8.17224,18.16881 18.22272,18.14505 z"
         id="path4"
         style="stroke-width:1.91805" />
    </g>
  </g>
</svg>
