<?xml version="1.0" encoding="UTF-8" standalone="no"?>
<svg
   height="800"
   viewBox="0 0 800 800"
   width="800"
   version="1.1"
   id="svg321"
   sodipodi:docname="vehicle-seat-horizon-down.svg"
   inkscape:version="1.2.2 (b0a8486541, 2022-12-01)"
   xmlns:inkscape="http://www.inkscape.org/namespaces/inkscape"
   xmlns:sodipodi="http://sodipodi.sourceforge.net/DTD/sodipodi-0.dtd"
   xmlns="http://www.w3.org/2000/svg"
   xmlns:svg="http://www.w3.org/2000/svg">
  <defs
     id="defs325" />
  <sodipodi:namedview
     id="namedview323"
     pagecolor="#ffffff"
     bordercolor="#000000"
     borderopacity="0.25"
     inkscape:showpageshadow="2"
     inkscape:pageopacity="0.0"
     inkscape:pagecheckerboard="0"
     inkscape:deskcolor="#d1d1d1"
     showgrid="false"
     inkscape:zoom="0.9775"
     inkscape:cx="401.53453"
     inkscape:cy="400"
     inkscape:window-width="1920"
     inkscape:window-height="1011"
     inkscape:window-x="0"
     inkscape:window-y="0"
     inkscape:window-maximized="1"
     inkscape:current-layer="g319" />
  <g
     fill="none"
     fill-rule="evenodd"
     id="g319">
    <rect
       fill="#2b0000"
       height="780"
       rx="150"
       stroke="#d70000"
       stroke-width="20"
       width="780"
       x="10"
       y="10"
       id="rect311" />
    <g
       fill="#fff"
       fill-rule="nonzero"
       id="g317">
      <path
         d="m614.53125 233.091741v-60.435591c0-12.499619-10.15782-22.65615-22.67247-22.65615h-24.547621c-12.499611 0-22.656136 10.156531-22.656136 22.65615v60.439888c0 12.516377 10.156525 22.65615 22.656136 22.65615h12.28133v31.906039c-17.546721.046999-37.547388 11.968954-46.298835 39.390342-18.531995 58.265668-79.406262 201.171243-79.406262 201.171243s-73.889073 9.515437-134.999239-2.640217c-48.32696-9.562273-70.142198 41.014992-37.032193 90.045379 17.266565 25.54623 31.734575 34.375026 63.516416 34.375026h124.390253c37.062271 0 64.328525-23.594158 71.452745-50.294959 22.906214-85.98483 45.048444-170.01458 68.797276-272.658406 2.390137-10.250203.812367-18.641146-3.046399-25.140175l.003357-52.048085c4.609259-4.155898 7.561642-10.109265 7.561642-16.766419z"
         id="path315" />
      <path
         d="m 363.25049,198.88211 c -2.53256,1.25692 -57.06235,28.80898 -104.41688,81.26223 l 0.12688,-49.32528 c 0.0264,-10.38536 -8.3741,-18.82389 -18.75209,-18.84837 -10.37087,-0.0218 -18.8096,8.35269 -18.85745,18.74914 l -0.24701,97.27922 c -0.006,4.98451 1.95774,9.78017 5.47882,13.3118 3.5186,3.53876 8.30059,5.52575 13.27327,5.53659 l 97.30574,0.2476 c 8.36885,0.0236 15.47869,-5.42674 17.93597,-12.98946 0.58747,-1.80801 0.9102,-3.749 0.91294,-5.76526 0.0264,-10.38537 -8.37174,-18.83115 -18.75209,-18.84838 l -54.11446,-0.14114 c 43.09653,-49.45778 95.91333,-76.32945 96.84411,-76.78857 4.70537,-2.33846 8.00626,-6.39372 9.51015,-11.02221 1.46557,-4.51058 1.23629,-9.57944 -1.0431,-14.16927 -4.62191,-9.31441 -15.89588,-13.11117 -25.2032,-8.4865 z"
         id="path6"
         style="stroke-width:1.9824" />
    </g>
  </g>
</svg>
