<?xml version="1.0" encoding="UTF-8" standalone="no"?>
<svg
   height="800"
   viewBox="0 0 800 800"
   width="800"
   version="1.1"
   id="svg32"
   sodipodi:docname="vehicle-seat-pov-up.svg"
   inkscape:version="1.2.2 (b0a8486541, 2022-12-01)"
   xmlns:inkscape="http://www.inkscape.org/namespaces/inkscape"
   xmlns:sodipodi="http://sodipodi.sourceforge.net/DTD/sodipodi-0.dtd"
   xmlns="http://www.w3.org/2000/svg"
   xmlns:svg="http://www.w3.org/2000/svg">
  <defs
     id="defs36" />
  <sodipodi:namedview
     id="namedview34"
     pagecolor="#ffffff"
     bordercolor="#000000"
     borderopacity="0.25"
     inkscape:showpageshadow="2"
     inkscape:pageopacity="0.0"
     inkscape:pagecheckerboard="0"
     inkscape:deskcolor="#d1d1d1"
     showgrid="false"
     inkscape:zoom="0.9775"
     inkscape:cx="401.53453"
     inkscape:cy="400"
     inkscape:window-width="1920"
     inkscape:window-height="1011"
     inkscape:window-x="0"
     inkscape:window-y="0"
     inkscape:window-maximized="1"
     inkscape:current-layer="g30" />
  <g
     fill="none"
     fill-rule="evenodd"
     id="g30">
    <rect
       fill="#331d00"
       height="780"
       rx="150"
       stroke="#ff9300"
       stroke-width="20"
       width="780"
       x="11"
       y="10"
       id="rect2"
       style="stroke:#d70000;stroke-opacity:1;fill:#2b0000;fill-opacity:1" />
    <g
       fill="#ffffff"
       fill-rule="nonzero"
       transform="matrix(1.6214166,0,0,1.6214166,153.54468,215.15851)"
       id="g187"
       style="fill:#ffffff;fill-opacity:1">
      <path
         d="m 32.609249,122.96134 c 7.280453,11.27296 15.881901,22.55355 25.714889,33.04207 27.507631,29.34147 58.903362,46.66326 93.675862,46.66326 34.7725,0 66.16823,-17.32179 93.67586,-46.66326 9.83299,-10.48852 18.43444,-21.76911 25.71489,-33.04207 2.0664,-3.19959 3.89913,-6.20469 5.49356,-8.96134 -1.59443,-2.75665 -3.42716,-5.76175 -5.49356,-8.96134 C 264.1103,93.765695 255.50885,82.485108 245.67586,71.996587 218.16823,42.655115 186.7725,25.333333 152,25.333333 c -34.7725,0 -66.168231,17.321782 -93.675862,46.663254 -9.832988,10.488521 -18.434436,21.769108 -25.714889,33.042073 -2.066404,3.19959 -3.899126,6.20469 -5.493561,8.96134 1.594435,2.75665 3.427157,5.76175 5.493561,8.96134 z M 1.3372556,108.33529 C 3.1177849,104.77424 6.4595853,98.833258 11.328251,91.294678 19.38634,78.817638 28.894267,66.348225 39.842529,54.670079 71.709898,20.678219 109.18917,0 152,0 c 42.81083,0 80.2901,20.678219 112.15747,54.670079 10.94826,11.678146 20.45619,24.147559 28.51428,36.624599 4.86866,7.53858 8.21046,13.479562 9.99099,17.040612 1.78301,3.56602 1.78301,7.7634 0,11.32942 -1.78053,3.56105 -5.12233,9.50203 -9.99099,17.04061 -8.05809,12.47704 -17.56602,24.94645 -28.51428,36.6246 C 232.2901,207.32178 194.81083,228 152,228 109.18917,228 71.709898,207.32178 39.842529,173.32992 28.894267,161.65178 19.38634,149.18236 11.328251,136.70532 6.4595853,129.16674 3.1177849,123.22576 1.3372556,119.66471 c -1.78300748,-3.56602 -1.78300748,-7.7634 0,-11.32942 z"
         id="path183-3"
         style="fill:#ffffff;fill-opacity:1" />
      <path
         d="m 152,164.66667 c -27.98243,0 -50.66667,-22.68424 -50.66667,-50.66667 0,-27.982427 22.68424,-50.666667 50.66667,-50.666667 27.98243,0 50.66667,22.68424 50.66667,50.666667 0,27.98243 -22.68424,50.66667 -50.66667,50.66667 z m 0,-25.33334 c 13.99121,0 25.33333,-11.34212 25.33333,-25.33333 0,-13.99121 -11.34212,-25.333333 -25.33333,-25.333333 -13.99121,0 -25.33333,11.342123 -25.33333,25.333333 0,13.99121 11.34212,25.33333 25.33333,25.33333 z"
         id="path185-6"
         style="fill:#ffffff;fill-opacity:1" />
      <path
         d="M 300.21976,19.236826 V -0.20960122 h 18.36231 c 6.2337,0 10.02812,-3.52339428 10.02812,-9.21503458 0,-5.6238782 -3.79442,-9.2150282 -10.02812,-9.2150282 h -18.36231 v -18.768853 c 0,-6.233697 -3.72666,-10.028126 -9.55381,-10.028126 -5.7594,0 -9.41831,3.794429 -9.41831,10.028126 v 18.768853 h -18.02352 c -6.2337,0 -10.02813,3.59115 -10.02813,9.28279 0,5.6238785 3.79443,9.14727278 10.02813,9.14727278 h 18.02352 V 19.236826 c 0,6.165942 3.72666,9.960364 9.48606,9.960364 5.7594,0 9.48606,-3.794422 9.48606,-9.960364 z"
         id="path4540"
         style="stroke-width:0.616745" />
    </g>
  </g>
</svg>
