<?xml version="1.0" encoding="UTF-8" standalone="no"?>
<svg
   height="800"
   viewBox="0 0 800 800"
   width="800"
   version="1.1"
   id="svg321"
   sodipodi:docname="vehicle-pit[on].svg"
   inkscape:version="1.2.2 (b0a8486541, 2022-12-01)"
   xml:space="preserve"
   xmlns:inkscape="http://www.inkscape.org/namespaces/inkscape"
   xmlns:sodipodi="http://sodipodi.sourceforge.net/DTD/sodipodi-0.dtd"
   xmlns="http://www.w3.org/2000/svg"
   xmlns:svg="http://www.w3.org/2000/svg"><defs
     id="defs325" /><sodipodi:namedview
     id="namedview323"
     pagecolor="#ffffff"
     bordercolor="#000000"
     borderopacity="0.25"
     inkscape:showpageshadow="2"
     inkscape:pageopacity="0.0"
     inkscape:pagecheckerboard="0"
     inkscape:deskcolor="#d1d1d1"
     showgrid="false"
     inkscape:zoom="0.9775"
     inkscape:cx="336.06138"
     inkscape:cy="367.26343"
     inkscape:window-width="1920"
     inkscape:window-height="1011"
     inkscape:window-x="0"
     inkscape:window-y="0"
     inkscape:window-maximized="1"
     inkscape:current-layer="g319"
     showguides="true"><sodipodi:guide
       position="244.63759,106.0022"
       orientation="0,-1"
       id="guide7160"
       inkscape:locked="false" /><sodipodi:guide
       position="182.83408,104.28601"
       orientation="0,-1"
       id="guide7162"
       inkscape:locked="false" /></sodipodi:namedview><g
     fill="none"
     fill-rule="evenodd"
     id="g319"><rect
       fill="#2b0000"
       height="780"
       rx="150"
       stroke="#d70000"
       stroke-width="20"
       width="780"
       x="10"
       y="10"
       id="rect311" /><g
       id="g523"
       style="fill:#ffffff;fill-opacity:1;stroke:none;stroke-opacity:1"
       transform="translate(-36.489685)"><path
         d="m 236.47119,607.3855 h -33.26171 v 86.6455 h 14.40917 v -30.72265 h 18.72559 c 17.77344,0 28.62793,-11.74317 28.62793,-27.92969 0,-16.05957 -10.72754,-27.99316 -28.50098,-27.99316 z m 13.77442,27.99316 c 0,10.21973 -5.90332,16.12305 -15.93262,16.12305 h -16.75781 v -32.18262 h 16.75781 c 10.0293,0 15.93262,5.83984 15.93262,16.05957 z"
         id="path1512-3"
         style="fill:#ffffff;fill-opacity:1;stroke:none;stroke-opacity:1"
         inkscape:label="path1514" /><path
         d="m 292.51526,694.05284 v -86.6455 h -14.40918 v 86.6455 z"
         id="path251"
         style="display:inline;fill:#ffffff;fill-opacity:1;stroke:none;stroke-opacity:1"
         inkscape:label="path1515" /><path
         d="m 345.07551,694.04089 v -74.33105 h 25.39063 v -12.31445 h -65.12696 v 12.31445 h 25.32715 v 74.33105 z"
         id="path1516-6"
         style="fill:#ffffff;fill-opacity:1;stroke:none;stroke-opacity:1"
         inkscape:label="path1516" /><path
         d="m 408.676,671.21172 c 1.01562,13.83789 12.1875,24.50195 32.37305,24.50195 21.01074,0 33.45215,-10.66406 33.45215,-26.59668 0,-13.52051 -8.37891,-20.50293 -22.97852,-24.05762 l -14.15527,-3.49121 c -7.74414,-1.84082 -11.99707,-5.64941 -11.99707,-11.29882 0,-7.68067 6.4746,-13.0127 16.69433,-13.0127 9.64844,0 15.86914,4.82422 17.26563,11.74316 h 13.96484 C 472.21604,615.7332 460.6633,605.45 442.19163,605.45 c -18.34473,0 -31.29395,10.34668 -31.29395,25.64453 0,12.31445 7.99805,20.18555 21.20117,23.35938 l 14.21875,3.55468 c 9.39453,2.28516 13.77442,5.83985 13.77442,12.37793 0,8.125 -6.60157,13.45703 -17.96387,13.45703 -10.72754,0 -17.90039,-5.1416 -19.29688,-12.63183 z"
         id="path1510"
         inkscape:label="path1517" /><path
         d="m 517.88833,694.03901 v -74.33105 h 25.39063 V 607.39351 H 478.152 v 12.31445 h 25.32715 v 74.33105 z"
         id="path1516"
         style="fill:#ffffff;fill-opacity:1;stroke:none;stroke-opacity:1"
         inkscape:label="path1518" /><path
         d="m 619.47678,656.61211 v -11.80664 c 0,-24.56543 -13.77441,-39.16504 -35.99121,-39.16504 -22.2168,0 -36.05469,14.53613 -36.05469,39.16504 v 11.80664 c 0,24.50195 13.83789,39.10156 36.05469,39.10156 22.2168,0 35.99121,-14.59961 35.99121,-39.10156 z m -14.59961,-11.93359 v 11.99707 c 0,17.96386 -9.14062,26.7871 -21.3916,26.7871 -12.37793,0 -21.45508,-8.82324 -21.45508,-26.7871 v -11.99707 c 0,-17.9004 9.07715,-26.72364 21.45508,-26.72364 12.25098,0 21.3916,8.82324 21.3916,26.72364 z"
         id="path1514"
         style="fill:#ffffff;fill-opacity:1;stroke:none;stroke-opacity:1"
         inkscape:label="path1519" /><path
         d="M 665.26891,607.41505 H 632.0072 v 86.6455 h 14.40917 V 663.3379 h 18.72559 c 17.77344,0 28.62793,-11.74317 28.62793,-27.92969 0,-16.05957 -10.72754,-27.99316 -28.50098,-27.99316 z m 13.77442,27.99316 c 0,10.21973 -5.90332,16.12305 -15.93262,16.12305 H 646.3529 v -32.18262 h 16.75781 c 10.0293,0 15.93262,5.83984 15.93262,16.05957 z"
         id="path1512"
         inkscape:label="path1520" /></g><g
       id="g12581"
       style="fill:#810000;fill-opacity:1"
       transform="translate(59.19042,-57.41606)"><path
         d="m 491.59905,241.58448 h -23.08421 l -24.4421,-67.89474 c -2.71579,-9.95789 -11.31579,-16.74736 -21.72632,-17.65263 -26.70526,-2.26316 -53.86316,-3.62105 -80.56842,-3.62105 -26.70526,0 -53.86316,1.35789 -80.56842,3.62105 -10.41053,0.90527 -19.01053,7.69474 -22.17895,17.65263 l -24.4421,67.89474 h -23.08421 c -4.07369,0 -7.69474,3.62105 -7.69474,7.69474 v 18.10526 c 0,4.07369 3.62105,7.69474 7.69474,7.69474 h 10.86316 c -2.26316,6.78947 -3.62106,13.57894 -3.62106,20.82105 v 65.17895 c 0,5.88421 3.62106,10.41052 9.05263,12.22105 v 34.85263 c 0,7.24211 5.88421,12.67369 12.67369,12.67369 h 24.4421 c 2.26316,0 4.52632,-0.45264 6.33684,-1.81053 0.90527,-0.45263 2.26316,-1.35789 2.71579,-2.26316 0.45264,-0.45263 0.90527,-1.35789 1.3579,-1.81052 1.35789,-2.26316 2.26316,-4.52632 2.26316,-7.24211 v -34.85263 h 166.56842 v 35.30526 c 0,5.43158 3.16842,9.9579 7.69473,11.76842 0.90527,0.45264 1.3579,0.45264 2.26316,0.90527 0.90527,0 1.81053,0.45263 2.71579,0.45263 h 24.44211 c 0.90526,0 1.81052,0 2.71579,-0.45263 4.07368,-0.90527 7.69473,-3.62106 9.05263,-7.69474 0.45263,-0.90526 0.45263,-1.35789 0.90526,-2.26316 0,-0.90526 0.45263,-1.81052 0.45263,-2.71579 v -35.30526 c 3.16842,-0.90526 5.88421,-3.16842 7.24211,-5.88421 0.90526,-1.81053 1.81052,-4.07369 1.81052,-6.33684 v -65.17895 c 0,-7.24211 -1.35789,-14.03158 -3.62105,-20.82105 h 10.86316 c 4.07368,0 7.69474,-3.62106 7.69474,-7.69474 v -18.10526 c 0.90526,-4.07369 -2.26316,-7.24211 -6.78948,-7.24211 z m -223.6,-54.31579 c 24.44211,-2.26316 49.33685,-3.16842 73.77895,-3.16842 24.44211,0 49.33684,0.90526 73.77895,3.16842 l 23.53684,65.63158 H 244.00958 Z m 21.27369,134.43158 c 0,6.78947 -5.43158,12.22105 -12.22105,12.22105 h -29.42106 c -6.78947,0 -12.22105,-5.43158 -12.22105,-12.22105 v -8.6 c 0,-6.78947 5.43158,-12.22105 12.22105,-12.22105 h 29.42106 c 6.78947,0 12.22105,5.43158 12.22105,12.22105 z m 158.42105,0 c 0,6.78947 -5.43158,12.22105 -12.22105,12.22105 h -29.42106 c -6.78947,0 -12.22105,-5.43158 -12.22105,-12.22105 v -8.6 c 0,-6.78947 5.43158,-12.22105 12.22105,-12.22105 h 29.42106 c 6.78947,0 12.22105,5.43158 12.22105,12.22105 z"
         id="path12395"
         style="fill:#810000;fill-opacity:1" /><path
         d="m 203.50432,478.9108 h 121.30526 v 95.50526 c 0,4.07368 3.62105,7.69474 7.69474,7.69474 h 18.10526 c 4.07368,0 7.69474,-3.62106 7.69474,-7.69474 V 478.9108 h 121.30526 c 4.07368,0 7.69474,-3.62106 7.69474,-7.69474 V 453.1108 c 0,-4.07369 -3.62106,-7.69474 -7.69474,-7.69474 H 203.50432 c -4.07369,0 -7.69474,3.62105 -7.69474,7.69474 v 18.10526 c 0.45263,4.07368 3.62105,7.69474 7.69474,7.69474 z"
         id="path12397"
         style="fill:#810000;fill-opacity:1" /></g></g></svg>
